:SAMPLES-PER-SECOND 30
:FRAME-RANGE 1-1700
:FULLY-SPECIFIED
:DEGREES
1116
root  -103.367 38.6576 29.95 -7.51123 12.6326 1.99841
RightUpLeg  -9.62321 6.55271 1.11901
RightLeg  22.8965 2.21608 0.81101
RightFoot  -26.2333 1.09848 9.75103
RightToes  6.35937e-011 1.2921e-014 -6.02303e-014
Spine  22.3589 3.90466 2.88669
Spine1  -2.75196 4.21248 -2.71854
HEad  -15.324 39.5524 -21.2486
LeftShoulder1  2.48546 -9.59924 -12.4294
LeftArm  21.2025 -44.0234 -91.5349
LeftForeArm  73.5958 6.04013 -13.6091
LeftHand  -0.207048 13.7103 -1.76532
RightShoulder  3.78218 10.9717 20.2311
RightArm  -12.7022 38.4989 71.7398
RightForeArm  91.6509 -4.31006 3.13176
RightHand  0.381632 -8.27931 -16.1138
LeftUpLeg  -101.443 10.06 -50.6021
LeftLeg  102.071 -0.603985 1.2739
LeftFoot  -31.5813 -0.774401 -5.40235
LeftToes  -1.9349e-011 5.45182e-011 1.33515e-010
1117
root  -103.14 37.343 31.2523 -8.18121 13.3884 2.08359
RightUpLeg  -11.3761 9.22513 0.359448
RightLeg  23.2207 2.84642 1.12196
RightFoot  -27.1677 1.31783 10.7851
RightToes  6.35937e-011 1.2921e-014 -6.02303e-014
Spine  23.6715 3.38271 2.76535
Spine1  -3.00014 3.71663 -2.64423
HEad  -14.7018 40.858 -21.0544
LeftShoulder1  2.32126 -9.1944 -11.6665
LeftArm  19.7866 -43.5389 -91.2365
LeftForeArm  75.9912 6.14765 -13.1871
LeftHand  -0.266873 14.0108 -2.45568
RightShoulder  3.93652 11.226 20.8735
RightArm  -12.5611 38.4349 72.3224
RightForeArm  91.2374 -4.32616 3.11421
RightHand  0.40756 -8.3917 -16.4905
LeftUpLeg  -100.793 10.8258 -49.3055
LeftLeg  103.514 -1.89816 5.78718
LeftFoot  -31.4324 -0.350803 -3.04952
LeftToes  -1.9349e-011 5.45182e-011 1.33515e-010
1118
root  -102.968 35.7523 32.6329 -9.92642 13.1432 2.29514
RightUpLeg  -16.3144 9.19064 1.24882
RightLeg  39.3098 2.04347 1.51857
RightFoot  -23.7108 1.09471 11.557
RightToes  6.35937e-011 1.2921e-014 -6.02303e-014
Spine  24.2865 4.14456 2.53261
Spine1  -1.81648 4.12023 -1.74866
HEad  -12.8345 42.0738 -20.4781
LeftShoulder1  2.23743 -8.93863 -11.3378
LeftArm  19.2097 -44.1259 -92.3993
LeftForeArm  79.4788 6.11268 -12.8425
LeftHand  -0.329979 14.0625 -3.24802
RightShoulder  3.8638 10.9873 20.8133
RightArm  -12.2511 38.0503 72.7563
RightForeArm  90.6625 -4.39645 3.37762
RightHand  0.364428 -8.09949 -16.4106
LeftUpLeg  -100.674 13.1709 -48.24
LeftLeg  106.417 -3.31661 9.01029
LeftFoot  -31.2367 -0.0284663 -1.23603
LeftToes  -1.9349e-011 5.45182e-011 1.33515e-010
1119
root  -102.66 34.5094 34.0192 -13.041 14.6173 0.76416
RightUpLeg  -17.2181 5.66118 3.90015
RightLeg  50.647 1.32897 1.37575
RightFoot  -22.7976 0.049794 2.03612
RightToes  6.35937e-011 1.2921e-014 -6.02303e-014
Spine  24.3411 2.91326 4.09716
Spine1  1.1799 3.19273 -1.69776
HEad  -12.8568 42.9199 -19.9194
LeftShoulder1  2.22355 -9.39297 -10.4885
LeftArm  18.5498 -44.1213 -91.3248
LeftForeArm  81.2751 6.06882 -12.7049
LeftHand  -0.340956 13.6841 -3.57124
RightShoulder  3.82415 10.8636 20.7661
RightArm  -12.1561 37.9444 73.9503
RightForeArm  90.6349 -4.35993 3.1508
RightHand  0.432176 -8.50094 -16.8108
LeftUpLeg  -97.5675 15.3439 -47.0088
LeftLeg  108.741 -4.76165 11.624
LeftFoot  -31.4021 -0.03908 -1.29139
LeftToes  -1.9349e-011 5.45182e-011 1.33515e-010
1120
root  -102.411 33.4039 35.6235 -13.4659 18.8475 0.922455
RightUpLeg  -17.2206 4.31859 3.87623
RightLeg  58.6659 -0.309197 -1.02408
RightFoot  -30.2429 0.0442249 1.50073
RightToes  6.35937e-011 1.2921e-014 -6.02303e-014
Spine  22.6354 2.33216 1.44025
Spine1  2.32952 1.6296 0.297411
HEad  -12.2927 43.3023 -18.5867
LeftShoulder1  2.33619 -9.30901 -11.6104
LeftArm  22.1306 -43.7 -90.4556
LeftForeArm  80.2191 5.59753 -13.7325
LeftHand  -0.349302 13.311 -3.88493
RightShoulder  3.81148 10.4364 21.5657
RightArm  -11.9246 36.8969 73.2989
RightForeArm  90.8855 -4.4562 3.79878
RightHand  0.541119 -9.17212 -17.1675
LeftUpLeg  -95.3445 13.9393 -49.0781
LeftLeg  111.212 -5.69929 12.3731
LeftFoot  -30.732 -0.110371 -1.72992
LeftToes  -1.9349e-011 5.45182e-011 1.33515e-010
1121
root  -102.038 32.9137 37.061 -13.5621 21.5447 0.434753
RightUpLeg  -15.6721 2.42642 4.40596
RightLeg  61.849 -0.785096 -2.13553
RightFoot  -34.5881 0.161595 1.93264
RightToes  6.35937e-011 1.2921e-014 -6.02303e-014
Spine  21.6578 2.46334 1.78949
Spine1  2.04127 1.65385 0.306799
HEad  -13.5613 40.976 -18.7441
LeftShoulder1  2.68418 -10.1994 -13.1077
LeftArm  23.7869 -42.9868 -90.2971
LeftForeArm  80.9585 5.20041 -14.1525
LeftHand  -0.359211 13.2293 -4.07227
RightShoulder  3.50136 9.6412 20.8234
RightArm  -10.8338 35.463 72.3658
RightForeArm  90.7068 -4.71236 5.30304
RightHand  0.288466 -7.72187 -15.3499
LeftUpLeg  -94.3586 12.7272 -50.1559
LeftLeg  112.522 -5.7695 11.7913
LeftFoot  -30.6825 -0.149331 -1.96122
LeftToes  -1.9349e-011 5.45182e-011 1.33515e-010
